<?xml version="1.0" encoding="UTF-8"?>
<svg width="148px" height="61px" viewBox="0 0 148 61" version="1.1" xmlns="http://www.w3.org/2000/svg" xmlns:xlink="http://www.w3.org/1999/xlink">
    <!-- Generator: Sketch 51.3 (57544) - http://www.bohemiancoding.com/sketch -->
    <title>Group 3</title>
    <desc>Created with Sketch.</desc>
    <defs></defs>
    <g id="首页" stroke="none" stroke-width="1" fill="none" fill-rule="evenodd">
        <g transform="translate(-402.000000, -3943.000000)" id="Group-3">
            <g transform="translate(402.000000, 3943.000000)">
                <g id="Group-21" transform="translate(0.000000, 46.901408)" fill="#666666">
                    <path d="M88.0402163,2.17862466 L94.3860939,2.17862466 C93.2217265,4.7459716 91.0998898,6.92217568 88.0220939,8.71478793 L88.4993184,9.32340017 C90.642298,8.04425732 92.3352367,6.57935936 93.5781347,4.9317267 L93.5781347,13.1245838 L94.3181347,13.1245838 L94.3181347,3.84588997 C94.6534,3.28862466 94.9403388,2.73588997 95.178951,2.17862466 L100.229073,2.17862466 L100.229073,1.47637976 L88.0402163,1.47637976 L88.0402163,2.17862466 Z" id="Fill-1"></path>
                    <path d="M96.3049592,4.98367772 L95.7990408,5.48506548 C97.4330816,6.8246165 98.7152449,8.08110629 99.6515714,9.24245323 L100.207327,8.68518793 C99.1486735,7.44228997 97.8468776,6.20845323 96.3049592,4.98367772" id="Fill-3"></path>
                    <path d="M115.131012,4.10775936 L116.611012,4.10775936 L116.611012,3.40551446 L115.131012,3.40551446 L115.131012,0.946902213 L114.430278,0.946902213 L114.430278,3.40551446 L112.643706,3.40551446 L112.643706,4.10775936 L114.430278,4.10775936 L114.430278,7.32147364 C113.821665,7.56008589 113.142073,7.78208589 112.393012,7.98294303 L112.393012,8.69877976 C112.957829,8.51302466 113.758237,8.29102466 114.430278,8.03731038 L114.430278,11.5802492 C114.430278,11.9759226 114.221869,12.17829 113.806563,12.17829 L112.788686,12.17829 L112.788686,12.8125757 L114.058767,12.8125757 C114.774604,12.8125757 115.131012,12.4606981 115.131012,11.7660043 L115.131012,7.73224915 C115.676196,7.49514711 116.206278,7.31090221 116.716727,7.02094303 L116.716727,6.3066165 C116.239502,6.56939201 115.712441,6.75665732 115.131012,7.03151446 L115.131012,4.10775936 Z" id="Fill-5"></path>
                    <polygon id="Fill-7" points="117.458237 12.5214083 124.377992 12.5214083 124.377992 11.8478573 118.172563 11.8478573 118.172563 2.22785732 124.377992 2.22785732 124.377992 1.54071446 117.458237 1.54071446"></polygon>
                    <path d="M119.483118,10.8254492 C120.345445,10.0144696 121.100547,9.03283691 121.745404,7.87904099 C122.37969,8.81083691 122.933935,9.73961242 123.411159,10.6563063 L123.900465,10.1639798 C123.361322,9.18687772 122.757241,8.19769405 122.08822,7.20095936 C122.634914,6.06679609 123.075894,4.64116344 123.411159,3.18079609 L122.736098,3.18079609 C122.471812,4.41463283 122.109363,5.54124507 121.653282,6.55459201 C121.008424,5.60165323 120.278996,4.63210221 119.468016,3.64442874 L118.98022,4.1080614 C119.844057,5.16671446 120.624833,6.21026548 121.321037,7.24173487 C120.729037,8.37136752 119.970914,9.38471446 119.046669,10.2863063 L119.483118,10.8254492 Z" id="Fill-9"></path>
                    <path d="M137.473878,11.8804777 L146.654408,11.8804777 L146.654408,2.20308997 L137.473878,2.20308997 L137.473878,11.8804777 Z M136.759551,12.5253349 L147.368735,12.5253349 L147.368735,1.54011038 L136.759551,1.54011038 L136.759551,12.5253349 Z" id="Fill-11"></path>
                    <path d="M140.621596,4.25364507 L140.780167,4.03919609 L143.969718,4.03919609 C143.590657,4.64931854 143.043963,5.17335936 142.328127,5.61282874 C141.68478,5.2277267 141.115433,4.77466548 140.621596,4.25364507 Z M138.480127,7.67727772 C139.994861,7.3344614 141.280045,6.87686956 142.328127,6.30299201 C143.272004,6.83307364 144.409188,7.28160425 145.742698,7.65311446 L146.111188,7.09584915 C144.931718,6.81193078 143.862494,6.42531854 142.911065,5.93299201 C143.722045,5.38327772 144.320086,4.73691038 144.709718,3.98633895 L144.709718,3.4864614 L141.163759,3.4864614 C141.323841,3.21915527 141.455229,2.86425732 141.562453,2.57429813 L140.858698,2.57429813 C140.417718,3.64050221 139.626371,4.54360425 138.398576,5.28360425 L138.795759,5.81217568 C139.342453,5.47691038 139.824208,5.09331854 140.238004,4.66140017 C140.669922,5.13711446 141.17131,5.56601242 141.746698,5.94507364 C140.80282,6.42229813 139.608249,6.80437976 138.161473,7.09584915 L138.480127,7.67727772 Z" id="Fill-13"></path>
                    <path d="M139.443184,9.61758793 C141.259959,9.99815936 142.975551,10.5070981 144.589959,11.1413838 L144.827061,10.5418328 C143.196041,9.90905732 141.497061,9.41975119 139.736163,9.07844507 L139.443184,9.61758793 Z" id="Fill-14"></path>
                    <path d="M140.993257,7.75928181 L140.744073,8.29389405 C141.737788,8.46454711 142.723951,8.76054711 143.704073,9.18038385 L143.959298,8.60348589 C143.030522,8.22744507 142.041339,7.94805732 140.993257,7.75928181" id="Fill-15"></path>
                    <path d="M10.6760857,3.70800834 C10.6564531,5.76339609 10.3664939,7.50768181 9.80167755,8.93633487 C9.20967755,7.53184507 8.86686122,5.90837568 8.77020816,4.06743691 L8.87743265,3.70800834 L10.6760857,3.70800834 Z M9.44526939,0.947355275 L8.77020816,0.947355275 C8.48024898,3.12204915 7.90939184,4.90408997 7.06367755,6.18474303 L7.4880449,6.69972262 C7.77800408,6.27535527 8.05286122,5.79662058 8.30808571,5.25898793 C8.46514694,6.90511038 8.84873878,8.3926614 9.45886122,9.71711038 C8.87743265,10.8527838 8.09212653,11.7407838 7.10294286,12.3886614 L7.5273102,12.9278043 C8.46967755,12.2965389 9.23837143,11.4644165 9.82735102,10.4299267 C10.3393102,11.3738043 10.9705755,12.2059267 11.7196367,12.9278043 L12.2104531,12.45209 C11.3798408,11.6682941 10.7062898,10.765192 10.1852694,9.74429405 C10.9252694,8.13743691 11.3088612,6.12735527 11.3360449,3.70800834 L12.2406571,3.70800834 L12.2406571,3.03445732 L9.06167755,3.03445732 C9.20967755,2.41829405 9.3380449,1.60882466 9.44526939,0.947355275 Z" id="Fill-16"></path>
                    <path d="M2.76533469,0.947204254 C2.20051837,2.97389813 1.27778367,4.79973487 0.000151020408,6.42169405 L0.237253061,7.17679609 C0.783946939,6.50626548 1.2521102,5.86442874 1.64174286,5.25883691 L1.64174286,13.1224696 L2.32737551,13.1224696 L2.32737551,4.01593895 C2.75023265,3.14002058 3.10966122,1.92430629 3.39962041,0.947204254 L2.76533469,0.947204254 Z" id="Fill-17"></path>
                    <path d="M4.23159184,10.7327226 L6.45461224,10.7327226 L6.45461224,7.57186548 L4.23159184,7.57186548 L4.23159184,10.7327226 Z M3.54595918,6.92549813 L3.54595918,11.3836206 L7.12967347,11.3836206 L7.12967347,6.92549813 L5.68893878,6.92549813 L5.68893878,4.13313078 L7.44832653,4.13313078 L7.44832653,3.47015119 L5.68893878,3.47015119 L5.68893878,0.946600172 L5.00028571,0.946600172 L5.00028571,3.47015119 L3.20163265,3.47015119 L3.20163265,4.13313078 L5.00028571,4.13313078 L5.00028571,6.92549813 L3.54595918,6.92549813 Z" id="Fill-18"></path>
                    <path d="M32.0637469,10.1396655 C31.0851347,9.29999201 30.4100735,8.34403283 30.0385633,7.27027772 L34.1266857,7.27027772 C33.6947673,8.36215527 33.0061143,9.31962466 32.0637469,10.1396655 M34.8410122,7.24158385 L34.8410122,6.58011446 L29.3363184,6.58011446 L29.3363184,7.27027772 L29.3378286,7.27027772 C29.725951,8.50411446 30.4629306,9.59901242 31.5472571,10.5474206 C30.5414612,11.290441 29.2759102,11.8990532 27.7506041,12.3747675 L28.1477878,12.9697879 C29.725951,12.4940736 31.0488898,11.8477063 32.1150939,11.0231349 C33.0755837,11.7586043 34.2716653,12.4034614 35.7003184,12.9697879 L36.0839102,12.3596655 C34.7171755,11.8688492 33.5664,11.2783594 32.6330939,10.5881961 C33.655502,9.68660425 34.3909714,8.57358385 34.8410122,7.24158385" id="Fill-19"></path>
                    <path d="M33.981102,4.4114614 L33.981102,1.47713487 L29.7223265,1.47713487 L29.7223265,2.75476752 C29.7223265,3.90252262 29.1303265,4.79505323 27.9508571,5.42933895 L28.4371429,5.97301242 C29.7706531,5.19525732 30.4351429,4.10488997 30.4351429,2.69133895 L30.4351429,2.15068589 L33.2652653,2.15068589 L33.2652653,4.53227772 C33.2652653,5.23452262 33.6352653,5.58942058 34.3646939,5.58942058 L36.1633469,5.58942058 L36.1633469,4.92795119 L34.5096735,4.92795119 C34.1577959,4.92795119 33.981102,4.75578793 33.981102,4.4114614" id="Fill-20"></path>
                    <path d="M27.0376367,3.67266956 L27.5405347,3.1682614 C26.9560857,2.50679201 26.2040041,1.82266956 25.2767388,1.11740425 L24.7874327,1.59311854 C25.7237592,2.30895527 26.4713102,3.00213895 27.0376367,3.67266956" id="Fill-21"></path>
                    <path d="M28.4519429,10.4184492 L28.4519429,9.56971446 C27.8161469,10.1737961 27.0685959,10.7537145 26.573249,11.1327757 L26.573249,5.04514303 L23.9409633,5.04514303 L23.9409633,5.74738793 L25.8574122,5.74738793 L25.8574122,12.4526941 C26.8028,11.8274696 27.6847592,11.1478777 28.4519429,10.4184492" id="Fill-22"></path>
                    <polygon id="Fill-23" points="56.4556571 0.879396091 55.7141469 0.879396091 55.7141469 4.9524165 52.0503918 4.9524165 52.0503918 5.66674303 55.7141469 5.66674303 55.7141469 13.1211104 56.4556571 13.1211104 56.4556571 5.66674303 60.0741061 5.66674303 60.0741061 4.9524165 56.4556571 4.9524165"></polygon>
                    <path d="M50.9929469,3.67266956 L51.4958449,3.1682614 C50.9129061,2.50679201 50.1593143,1.82266956 49.232049,1.11740425 L48.7427429,1.59311854 C49.6790694,2.30895527 50.4281306,3.00213895 50.9929469,3.67266956" id="Fill-24"></path>
                    <path d="M50.5284082,5.04574711 L47.8961224,5.04574711 L47.8961224,5.74799201 L49.8140816,5.74799201 L49.8140816,12.4517879 C50.7579592,11.8265634 51.6399184,11.1484818 52.4086122,10.4190532 L52.4086122,9.56880834 C51.7713061,10.1744002 51.0237551,10.7528083 50.5284082,11.1318696 L50.5284082,5.04574711 Z" id="Fill-25"></path>
                </g>
                <g id="Group-26" fill="#17A1FF">
                    <path d="M142.009322,9.93321633 L138.472424,9.93321633 C138.428629,9.9588898 138.395404,9.97701224 138.351608,10.0026857 L135.346302,15.5723184 L132.301731,10.0162776 C132.29871,10.0132571 132.291159,10.0072163 132.288139,10.0041959 C131.974016,9.15697143 131.143404,8.53476735 130.120996,8.53476735 C129.11671,8.53476735 128.29969,9.14035918 127.974996,9.96493061 C127.953853,9.98154286 127.940261,10.0011755 127.940261,10.0162776 L124.915322,15.5375837 L121.928139,10.0026857 C121.884343,9.97701224 121.851118,9.9588898 121.807322,9.93321633 L118.297608,9.93321633 L118.297608,6.3359102 L142.009322,6.3359102 L142.009322,9.93321633 Z M142.009322,27.7339918 L137.235567,19.0216245 L142.009322,10.1537061 L142.009322,27.7339918 Z M130.140629,25.2225224 L126.75022,18.9400735 L130.140629,12.6742367 L133.529527,18.9400735 L130.140629,25.2225224 Z M118.297608,27.6146857 L118.297608,10.2261959 L123.026057,18.9823592 L118.297608,27.6146857 Z M147.557812,3.42423673 L147.557812,31.7481143 C147.545731,33.7838694 145.896588,35.4299918 143.859322,35.4299918 L142.012343,35.4299918 L142.012343,31.7586857 L142.009322,31.7586857 L142.009322,28.1644 C141.995731,28.1689306 141.986669,28.179502 141.971567,28.179502 L138.635527,28.179502 C138.573608,28.179502 138.508669,28.1160735 138.476955,28.0858694 L135.40822,22.4135429 L132.804629,27.2492163 C132.550914,27.7173796 132.140139,28.075298 131.656873,28.3093796 C131.214384,28.5676245 130.709976,28.7397878 130.143649,28.7397878 C129.131812,28.7397878 128.269486,28.2565224 127.749976,27.5331347 C127.582343,27.3473796 127.438873,27.1510531 127.330139,26.9532163 L124.874547,22.4059918 L121.802792,28.0858694 C121.772588,28.1160735 121.707649,28.179502 121.612506,28.179502 L118.297608,28.179502 L118.297608,31.7435837 L118.297608,31.7526449 C118.279486,33.7838694 116.631853,35.423951 114.599118,35.423951 L112.752139,35.423951 L112.752139,31.7526449 L112.749118,31.7526449 L112.749118,3.41970612 C112.749118,3.38497143 112.779322,3.35778776 112.812547,3.35778776 L114.085649,3.35778776 L118.297608,3.35778776 L118.297608,3.36231837 L142.009322,3.36231837 L142.009322,3.36080816 L147.495894,3.36080816 C147.529118,3.36080816 147.557812,3.38950204 147.557812,3.42423673 Z M100.059931,24.7416735 L108.56691,24.7416735 C108.607686,24.7416735 108.643931,24.774898 108.643931,24.8171837 L108.643931,27.6201224 C108.643931,27.6639184 108.607686,27.6971429 108.56691,27.6971429 L100.059931,27.6971429 L100.059931,31.7339184 L100.059931,31.7218367 L100.059931,31.7444898 L100.059931,31.7837551 L100.05389,31.7837551 C100.020665,33.7998776 98.3820939,35.4233469 96.3584204,35.4233469 L94.5114408,35.4233469 L94.5114408,31.7837551 L94.5114408,31.7444898 L94.5114408,27.6971429 L83.642502,27.6971429 C83.6017265,27.6971429 83.568502,27.6639184 83.568502,27.6201224 L83.568502,24.8171837 C83.568502,24.774898 83.6017265,24.7416735 83.642502,24.7416735 L94.5114408,24.7416735 L94.5114408,22.0701224 L89.3374816,22.0701224 L89.3374816,22.0746531 L83.7134816,22.0746531 C83.6047469,22.0746531 83.5292367,21.9674286 83.5624612,21.8662449 L86.1207469,14.2457551 L83.4688286,14.2457551 C83.4340939,14.2457551 83.4084204,14.2170612 83.4084204,14.1853469 L83.4084204,11.3174694 C83.4084204,11.2857551 83.4340939,11.2570612 83.4688286,11.2570612 L87.1235224,11.2570612 L88.1353592,8.23665306 C88.1549918,8.1777551 88.2108694,8.1384898 88.2727878,8.1384898 L93.9556857,8.1384898 C94.0614,8.1384898 94.1369102,8.24269388 94.1021755,8.34387755 L93.0903388,11.2570612 L107.562624,11.2570612 C107.595849,11.2570612 107.623033,11.2857551 107.623033,11.3174694 L107.623033,14.1853469 C107.623033,14.2170612 107.595849,14.2457551 107.562624,14.2457551 L92.0543388,14.2457551 L90.3749918,19.084449 L94.5114408,19.084449 L94.5114408,16.2452653 C94.5114408,16.1516327 94.5884612,16.0746122 94.6820939,16.0746122 L99.8877673,16.0746122 C99.9829102,16.0746122 100.059931,16.1516327 100.059931,16.2452653 L100.059931,19.084449 L107.546012,19.084449 C107.588298,19.084449 107.623033,19.1176735 107.623033,19.1614694 L107.623033,21.9946122 C107.623033,22.036898 107.588298,22.0701224 107.546012,22.0701224 L100.059931,22.0701224 L100.059931,24.7416735 Z M58.400951,16.0256816 L73.1707469,16.0256816 C73.2039714,16.0256816 73.2311551,16.0528653 73.2311551,16.0860898 L73.2311551,18.9116816 C73.2311551,18.9449061 73.2039714,18.9720898 73.1707469,18.9720898 L58.400951,18.9720898 L58.400951,31.7227429 L58.400951,31.7438857 L58.400951,31.7589878 L58.3964204,31.7589878 C58.3752776,33.7871918 56.7306653,35.4242531 54.6994408,35.4242531 L52.8524612,35.4242531 L52.8524612,31.7438857 L52.8539714,31.7438857 L52.8539714,18.9720898 L37.8969102,18.9720898 C37.8621755,18.9720898 37.8349918,18.9449061 37.8349918,18.9116816 L37.8349918,16.0860898 C37.8349918,16.0528653 37.8621755,16.0256816 37.8969102,16.0256816 L52.8539714,16.0256816 L52.8539714,8.67702857 L51.7711551,8.7631102 C48.3475224,8.96245714 44.6414816,9.06364082 40.6726653,9.06666122 L40.6681347,9.07119184 L40.6636041,9.06666122 C40.5805429,9.06213061 40.5186245,8.99870204 40.5125837,8.91715102 C40.5125837,8.91262041 40.5065429,8.91413061 40.5065429,8.9111102 C40.5065429,8.90657959 40.5125837,8.9080898 40.5125837,8.90506939 L40.5125837,6.22143673 L40.5125837,6.21992653 C40.5125837,6.1338449 40.5835633,6.06739592 40.6681347,6.06437551 L40.6711551,6.06437551 L40.6726653,6.0598449 L40.6771959,6.06286531 C40.8674816,6.05229388 41.1831143,6.03266122 41.3749102,6.01906939 C51.4978082,5.35306939 59.0775224,3.70845714 65.4989102,1.08674286 C65.5487469,1.0656 65.6076449,1.08070204 65.6469102,1.11996735 L70.1805429,5.81670204 C70.2681347,5.91033469 70.2334,6.06588571 70.1095633,6.10062041 C66.844502,7.02486531 62.9421347,7.73617143 58.400951,8.23151837 L58.400951,16.0256816 Z M108.625506,6.18126531 C108.625506,6.26281633 108.560567,6.33077551 108.477506,6.33077551 L81.6774245,6.33077551 L81.6774245,15.9341633 C81.5218735,26.6445306 78.5709347,35.3901224 74.7757918,35.3901224 L73.2776694,35.3901224 C74.7455878,30.0092653 76.1349755,22.1048571 76.1349755,15.6306122 L76.1349755,3.52179592 C76.1349755,3.43571429 76.2059551,3.3662449 76.2920367,3.3662449 L81.6562816,3.35718367 L91.057302,3.35718367 L91.057302,0.348857143 L91.057302,-3.69926312e-13 L92.5780776,-3.69926312e-13 C94.4794245,-3.69926312e-13 96.0304041,1.48906122 96.1285673,3.35718367 L108.477506,3.35718367 C108.560567,3.35718367 108.625506,3.42363265 108.625506,3.50669388 L108.625506,6.18126531 Z" id="Combined-Shape"></path>
                    <path d="M9.2441102,3.15783673 C9.47668163,3.15783673 9.66545714,3.34661224 9.66545714,3.57767347 L9.66545714,14.7380816 C9.07949796,16.264898 8.76688571,17.9110204 8.76688571,19.6930612 C8.76688571,21.4630204 9.07949796,23.1076327 9.66545714,24.6435102 L9.66545714,25.7912653 C9.66545714,31.1283265 5.33872245,35.4565714 0.000151020408,35.4565714 L0.000151020408,12.4017959 C0.000151020408,7.29579592 4.1381102,3.15783673 9.2441102,3.15783673 Z M34.5945469,29.4213429 L34.6051184,29.4560776 L33.9617714,29.8895061 C32.996751,30.5404041 32.0815673,31.0765265 31.2086694,31.4948531 C30.3342612,31.9131796 29.4507918,32.2424041 28.5552408,32.4825265 C26.714302,32.9763633 24.8627918,33.107751 22.9946694,32.8812204 C21.1265469,32.6562 19.3852816,32.0974245 17.7693633,31.2124449 C16.1549551,30.3259551 14.7323429,29.1389347 13.5000163,27.6574245 C13.320302,27.4399551 13.164751,27.2058735 12.9986286,26.9778327 C12.0351184,25.6473429 11.3072,24.138649 10.848098,22.429098 C10.3889959,20.7074653 10.263649,19.0371796 10.4358122,17.4106898 C10.4629959,17.1464041 10.4796082,16.879098 10.5249143,16.6163224 C10.8435673,14.7421592 11.4823837,13.0295878 12.4458939,11.4786082 C13.4063837,9.92611837 14.644751,8.58203673 16.1609959,7.44938367 C17.6772408,6.31522041 19.365649,5.4997102 21.2277306,4.99983265 C22.2909143,4.71742449 23.3631592,4.54526122 24.4474857,4.48938367 C25.5318122,4.43350612 26.6992,4.48334286 27.9556898,4.64040408 C28.7606286,7.64117959 26.8864653,10.6902816 23.8479347,11.3381592 C23.7029551,11.3713837 23.5549551,11.4046082 23.4099755,11.4453837 C22.3724653,11.721751 21.4618122,12.1642408 20.6749959,12.7698327 C19.8912,13.3739143 19.2644653,14.0791796 18.796302,14.881098 C18.329649,15.6845265 18.0306286,16.5725265 17.8977306,17.545098 C17.7678531,18.5176694 17.8373224,19.5113837 18.1091592,20.5217102 C18.3870367,21.5577102 18.8249959,22.4653429 19.4260571,23.2400776 C20.0256082,24.0178327 20.7354041,24.6400367 21.5554449,25.1112204 C22.3769959,25.5808939 23.2725469,25.8829347 24.2436082,26.0173429 C25.2131592,26.1532612 26.2068735,26.0837918 27.2217306,25.8119551 C27.3772816,25.7696694 27.5298122,25.7243633 27.6808327,25.6745265 C30.6317714,24.6928939 33.7911184,26.4175469 34.5945469,29.4213429 Z" id="Combined-Shape"></path>
                </g>
            </g>
        </g>
    </g>
</svg>